<?xml version="1.0" encoding="UTF-8" standalone="no"?>
<!--Created with Vectornator for iOS (http://vectornator.io/)-->
<!DOCTYPE svg PUBLIC "-//W3C//DTD SVG 1.1//EN" "http://www.w3.org/Graphics/SVG/1.1/DTD/svg11.dtd">
<svg style="fill-rule:evenodd;clip-rule:evenodd;stroke-linecap:round;stroke-linejoin:round" xmlns:vectornator="http://vectornator.io" xmlns:xlink="http://www.w3.org/1999/xlink" xmlns="http://www.w3.org/2000/svg" xml:space="preserve" version="1.1" viewBox="0 0 6 6">
    <g id="Layer 1" vectornator:layerName="Layer 1">
        <path d="M2.368+4.7793L3.53206+4.7793L3.53206+5.9082L2.368+5.9082L2.368+4.7793ZM0.942215+1.9668C0.973465+1.22461+1.23258+0.698568+1.71956+0.388672C2.02685+0.190755+2.40445+0.0917969+2.85237+0.0917969C3.44091+0.0917969+3.92985+0.232422+4.31917+0.513672C4.70849+0.794922+4.90315+1.21159+4.90315+1.76367C4.90315+2.10221+4.81852+2.38737+4.64925+2.61914C4.55029+2.75977+4.36018+2.93945+4.07893+3.1582L3.80159+3.37305C3.65055+3.49023+3.55029+3.62695+3.50081+3.7832C3.46956+3.88216+3.45263+4.03581+3.45003+4.24414L2.39534+4.24414C2.41097+3.80404+2.45263+3.5+2.52034+3.33203C2.58805+3.16406+2.76253+2.9707+3.04378+2.75195L3.32893+2.5293C3.42268+2.45898+3.4982+2.38216+3.5555+2.29883C3.65966+2.1556+3.71175+1.99805+3.71175+1.82617C3.71175+1.62826+3.6538+1.44792+3.53792+1.28516C3.42203+1.1224+3.21044+1.04102+2.90315+1.04102C2.60107+1.04102+2.38688+1.14128+2.26057+1.3418C2.13427+1.54232+2.07112+1.75065+2.07112+1.9668L0.942215+1.9668Z" opacity="1" fill="#000000"/>
    </g>
</svg>
